<svg id="Group_67411" data-name="Group 67411" xmlns="http://www.w3.org/2000/svg" width="45.257" height="22.833" viewBox="0 0 45.257 22.833">
  <path id="Path_243579" data-name="Path 243579" d="M459.342,382.659c4.553,3.415,12.063,6.567,22.771,8.959l5-4.354c-11.13-1.882-19.048-4.588-23.954-7.646Z" transform="translate(-459.342 -368.785)" fill="#e8953f"/>
  <g id="Group_63345" data-name="Group 63345" transform="translate(10.233)">
    <g id="Group_63343" data-name="Group 63343" transform="translate(1.315 7.653)">
      <path id="Path_243580" data-name="Path 243580" d="M512.446,378.649l4.768-4.154a106.185,106.185,0,0,1-20.569-3.573l-3.974,3.235A93.9,93.9,0,0,0,512.446,378.649Z" transform="translate(-492.67 -370.922)" fill="#e8953f"/>
    </g>
    <g id="Group_63344" data-name="Group 63344">
      <path id="Path_243581" data-name="Path 243581" d="M519.376,357.172l4.522-3.94a135.232,135.232,0,0,1-22.031-1.857,54.917,54.917,0,0,1-5.828-1.384l-3.549,2.83-3.616,2.884a43.033,43.033,0,0,0,5.29,1.94l3.892-3.168A119.944,119.944,0,0,0,519.376,357.172Z" transform="translate(-488.874 -349.991)" fill="#e8953f"/>
    </g>
  </g>
</svg>
